# xmcd
#
# Track frame offsets: 
#        150
#        12624
#        25422
#        37087
#        49157
#        60955
#        72544
#        87326
#        99894
#        111899
#        125158
#        137240
#        149393
#        160209
#        172138
#        182545
#        194540
#        205810
#        218135
#        231697
#        246167
#        258735
#
# Disc length: 3602 seconds
#
# Revision: 0
# Processed by: cddbd v1.5.2PL0 Copyright (c) Steve Scherf et al.
# Submitted via: ExactAudioCopyFreeDBPlugin 1.0
#
DISCID=5a0e1016
DTITLE=Various Artist - Vocal Quartets Vol. 3: G
DYEAR=1997
DGENRE=Gospel
TTITLE0=Gold Star Quartette - Old Ship of Zion
TTITLE1=Gold Star Quartette - Stoop Down
TTITLE2=Gold Star Quartette - My Mother's Gone to Heaven
TTITLE3=Gold Star Quartette - Holding His Righteous Hand
TTITLE4=Gold Star Quartette - John Wrote the Revelations
TTITLE5=Gold Star Quartette - I Know His Blood Has Made Me Whole
TTITLE6=Golden Echo Quartet (Of Station WSM, Nashville, Tenn.) - This 
TTITLE6=World Is Not My Home
TTITLE7=Golden Echo Quartet (Of Station WSM, Nashville, Tenn.) - Golde
TTITLE7=n Slippers
TTITLE8=Golden Echo Quartet (Of Station WSM, Nashville, Tenn.) - Good 
TTITLE8=News - The Chariot's Coming
TTITLE9=Golden Echo Quartet (Of Station WSM, Nashville, Tenn.) - Witne
TTITLE9=ss
TTITLE10=Golden Leaf Quartet - Ding Dong Bell
TTITLE11=Golden Leaf Quartet - Alabama Camp Meetin'
TTITLE12=Golden Leaf Quartet - Every Time I Feel the Spirit
TTITLE13=Golden Leaf Quartet - I Wouldn't Mind Dying
TTITLE14=Golden Leaf Quartet - Let Me Ride
TTITLE15=Golden Leaf Quartet - Send the Angels Down
TTITLE16=Golden Leaf Quartet - Sleep, Baby, Sleep
TTITLE17=Golden Leaf Quartet - Central Georgia Blues
TTITLE18=Golden Leaf Quartet - Soldier in the Battlefield
TTITLE19=Golden Leaf Quartet - Shake My Righteous Hand
TTITLE20=Golden Leaf Quartet - I Sing Because I'm Happy
TTITLE21=Golden Leaf Quartet - Give Me That Old Time Glory
EXTD=
EXTT0=
EXTT1=
EXTT2=
EXTT3=
EXTT4=
EXTT5=
EXTT6=
EXTT7=
EXTT8=
EXTT9=
EXTT10=
EXTT11=
EXTT12=
EXTT13=
EXTT14=
EXTT15=
EXTT16=
EXTT17=
EXTT18=
EXTT19=
EXTT20=
EXTT21=
PLAYORDER=
